<svg width="1200" height="720" viewBox="0 0 1200 720" fill="none" xmlns="http://www.w3.org/2000/svg" role="img" aria-labelledby="title desc">
  <title id="title">SWE-bench scores rose quickly</title>
  <desc id="desc">A bar chart showing public SWE-bench style scores rising from 1.96 percent to 72.5 percent across 2023 to 2025 reports.</desc>
  <rect width="1200" height="720" fill="#f6f1e7"/>
  <text x="72" y="86" fill="#1f1a14" font-family="ui-serif, Georgia, serif" font-size="54" font-weight="600">A hard benchmark can become a release note</text>
  <text x="72" y="130" fill="#6a6253" font-family="ui-monospace, SFMono-Regular, Menlo, monospace" font-size="20">Reported SWE-bench style scores moved fast once labs optimized for agentic coding</text>
  <line x1="120" y1="560" x2="1080" y2="560" stroke="#938a76" stroke-width="2"/>
  <line x1="120" y1="220" x2="120" y2="560" stroke="#938a76" stroke-width="2"/>
  <g fill="#006bff">
    <rect x="190" y="551" width="120" height="9" rx="4"/>
    <rect x="390" y="312" width="120" height="248" rx="4"/>
    <rect x="590" y="272" width="120" height="288" rx="4"/>
    <rect x="790" y="235" width="120" height="325" rx="4"/>
  </g>
  <g fill="#1f1a14" font-family="ui-serif, Georgia, serif" font-size="28" font-weight="600">
    <text x="194" y="535">1.96%</text>
    <text x="397" y="296">54.6%</text>
    <text x="597" y="256">63.8%</text>
    <text x="797" y="219">72.5%</text>
  </g>
  <g fill="#6a6253" font-family="ui-monospace, SFMono-Regular, Menlo, monospace" font-size="17">
    <text x="170" y="604">Claude 2</text>
    <text x="156" y="630">SWE-bench paper</text>
    <text x="376" y="604">GPT-4.1</text>
    <text x="344" y="630">OpenAI report</text>
    <text x="576" y="604">Gemini 2.5 Pro</text>
    <text x="548" y="630">Google report</text>
    <text x="776" y="604">Claude Opus 4</text>
    <text x="748" y="630">Anthropic report</text>
  </g>
  <g fill="#938a76" font-family="ui-monospace, SFMono-Regular, Menlo, monospace" font-size="16">
    <text x="76" y="564">0%</text>
    <text x="70" y="478">20%</text>
    <text x="70" y="393">40%</text>
    <text x="70" y="308">60%</text>
    <text x="70" y="223">80%</text>
  </g>
  <text x="72" y="680" fill="#6a6253" font-family="ui-monospace, SFMono-Regular, Menlo, monospace" font-size="16">Progress is real. A single score is still not a proof that software engineering is solved.</text>
</svg>
